<svg width="158" height="34" viewBox="0 0 158 34" fill="none" xmlns="http://www.w3.org/2000/svg">
<g clip-path="url(#clip0_101_195)">
<path d="M54.8301 14.6067C55.5223 14.1333 56.3491 13.8965 57.187 13.9318C57.9931 13.9196 58.7819 14.1659 59.4378 14.6346C60.1075 15.1261 60.6037 15.8176 60.8548 16.6094L63.7555 15.7726C63.4218 14.4079 62.6004 13.2125 61.4461 12.4116C60.2036 11.5708 58.7284 11.1415 57.2288 11.1844C55.8523 11.1448 54.4931 11.4979 53.31 12.2025C52.2225 12.8802 51.3515 13.8547 50.7997 15.0112C50.1929 16.2997 49.8876 17.7095 49.9071 19.1336C49.8905 20.5434 50.1878 21.9392 50.7774 23.2198C51.3154 24.3808 52.175 25.3633 53.2542 26.0508C54.4375 26.7684 55.8038 27.1269 57.187 27.0828C58.652 27.1271 60.0946 26.7148 61.315 25.903C62.4793 25.0765 63.3374 23.8878 63.7555 22.5225L60.799 21.8252C60.5437 22.5611 60.0806 23.2073 59.4657 23.6856C58.7972 24.1446 57.997 24.3728 57.187 24.3355C55.8091 24.3355 54.7696 23.8567 54.0686 22.899C53.3676 21.9414 53.0124 20.6863 53.0031 19.1336C52.9955 18.2208 53.1513 17.3139 53.4634 16.456C53.7275 15.7188 54.2028 15.0756 54.8301 14.6067Z" fill="white"/>
<path d="M73.3076 11.5246C72.8163 11.5571 72.3309 11.6508 71.8628 11.8036C71.406 11.9509 70.9757 12.1703 70.5882 12.4534C70.1878 12.7215 69.8383 13.0586 69.5562 13.4492C69.4236 13.6273 69.3025 13.8136 69.1936 14.007V11.6027H66.5996V26.6644H69.5422V19.0639C69.5387 18.4936 69.5995 17.9247 69.7235 17.368C69.8368 16.8527 70.0367 16.3604 70.3148 15.912C70.6211 15.4405 71.0296 15.044 71.51 14.7519C71.9905 14.4598 72.5305 14.2795 73.0901 14.2246C73.639 14.1647 74.1943 14.2025 74.7301 14.3362V11.6027C74.2609 11.5189 73.7832 11.4927 73.3076 11.5246Z" fill="white"/>
<path d="M80.5709 11.6001H77.6562V26.6618H80.5709V11.6001Z" fill="white"/>
<path d="M80.5709 6.30054H77.6562V9.13158H80.5709V6.30054Z" fill="white"/>
<path d="M88.8409 14.6067C89.5345 14.134 90.362 13.8973 91.2006 13.9318C92.0067 13.9196 92.7955 14.1659 93.4515 14.6346C94.1211 15.1261 94.6173 15.8176 94.8684 16.6094L97.7664 15.7726C97.4348 14.4077 96.6141 13.2118 95.4597 12.4116C94.217 11.5714 92.742 11.1421 91.2425 11.1844C89.866 11.1448 88.5067 11.4979 87.3236 12.2025C86.2362 12.8802 85.3652 13.8547 84.8133 15.0112C84.2065 16.2997 83.9013 17.7095 83.9208 19.1336C83.9042 20.5434 84.2014 21.9392 84.791 23.2198C85.3291 24.3808 86.1886 25.3633 87.2678 26.0508C88.4512 26.7684 89.8174 27.1269 91.2006 27.0828C92.6648 27.1273 94.1066 26.7149 95.3258 25.903C96.4918 25.0781 97.3504 23.8889 97.7664 22.5225L94.8126 21.8252C94.5573 22.5611 94.0942 23.2073 93.4794 23.6856C92.8108 24.1446 92.0107 24.3728 91.2006 24.3355C89.8228 24.3355 88.7833 23.8567 88.0823 22.899C87.3813 21.9414 87.0261 20.6863 87.0168 19.1336C87.0091 18.2208 87.165 17.3139 87.477 16.456C87.7412 15.7195 88.2153 15.0766 88.8409 14.6067Z" fill="white"/>
<path d="M110.403 18.9161C109.441 18.4484 108.43 18.091 107.388 17.8506C106.207 17.5531 105.316 17.2974 104.713 17.0836C104.26 16.9563 103.842 16.7274 103.491 16.4142C103.282 16.181 103.171 15.8765 103.179 15.5635C103.178 15.2831 103.253 15.0078 103.398 14.7677C103.543 14.5276 103.751 14.332 103.999 14.2023C104.658 13.8499 105.405 13.6976 106.15 13.7644C106.945 13.7657 107.721 14.0036 108.381 14.4478C108.661 14.6441 108.897 14.8969 109.073 15.19C109.249 15.483 109.362 15.8098 109.405 16.1492L112.397 15.6192C112.298 14.7582 111.948 13.9454 111.39 13.2819C110.8 12.5944 110.048 12.0652 109.201 11.7423C108.222 11.3663 107.181 11.1817 106.133 11.1984C105.076 11.1756 104.025 11.3653 103.042 11.7562C102.227 12.0789 101.519 12.6251 101.001 13.3321C100.51 14.0291 100.256 14.8649 100.275 15.7169C100.26 16.3681 100.427 17.0107 100.758 17.5717C101.164 18.1617 101.723 18.6295 102.376 18.9245C103.358 19.3922 104.386 19.7549 105.444 20.0067C106.626 20.3209 107.506 20.5859 108.082 20.8016C108.51 20.9262 108.898 21.1586 109.209 21.4766C109.403 21.7463 109.502 22.0733 109.488 22.4054C109.499 22.7054 109.433 23.0032 109.298 23.2713C109.163 23.5394 108.963 23.7691 108.716 23.9394C108.078 24.3446 107.33 24.5397 106.576 24.4973C105.691 24.5276 104.816 24.2915 104.066 23.8195C103.41 23.3976 102.947 22.7342 102.777 21.973L99.793 22.4333C99.8943 23.1173 100.135 23.7734 100.499 24.361C100.864 24.9486 101.345 25.4554 101.913 25.85C103.064 26.6589 104.551 27.0633 106.375 27.0633C108.283 27.0633 109.778 26.6403 110.86 25.7943C111.943 24.9482 112.48 23.7879 112.473 22.3133C112.494 21.6238 112.328 20.9415 111.993 20.3386C111.604 19.7268 111.054 19.2345 110.403 18.9161Z" fill="white"/>
<path d="M119.705 7.41895H116.776V11.6027H113.887V13.9457H116.776V20.7374C116.776 21.5546 116.776 22.2882 116.81 22.9325C116.838 23.599 117.017 24.2505 117.334 24.8375C117.68 25.5196 118.25 26.0615 118.949 26.3716C119.72 26.7078 120.549 26.888 121.39 26.9015C122.325 26.9265 123.261 26.8469 124.179 26.6644V24.196C123.329 24.3319 122.465 24.3618 121.607 24.2852C121.28 24.2672 120.963 24.1679 120.684 23.9965C120.405 23.8251 120.173 23.5869 120.009 23.3034C119.825 22.9555 119.729 22.5676 119.73 22.1738C119.73 21.7275 119.711 21.2032 119.711 20.5979V13.9457H124.173V11.6027H119.711L119.705 7.41895Z" fill="white"/>
<path d="M137.109 12.2024C135.916 11.5362 134.573 11.1846 133.207 11.1807C131.841 11.1768 130.496 11.5207 129.299 12.1801C128.193 12.8473 127.298 13.8144 126.719 14.9693C126.084 16.2591 125.769 17.6824 125.799 19.1196C125.77 20.5492 126.079 21.9654 126.7 23.2532C127.268 24.4145 128.155 25.3897 129.257 26.0648C130.452 26.7281 131.796 27.0761 133.162 27.0761C134.529 27.0761 135.873 26.7281 137.067 26.0648C138.174 25.3936 139.067 24.4214 139.642 23.2616C140.241 21.9669 140.551 20.5574 140.551 19.1308C140.551 17.7042 140.241 16.2947 139.642 15C139.077 13.8482 138.199 12.8786 137.109 12.2024ZM136.42 22.8711C135.708 23.8455 134.631 24.3317 133.19 24.3299C131.788 24.3299 130.724 23.8557 129.997 22.9074C129.27 21.959 128.907 20.6946 128.909 19.1141C128.891 18.1931 129.047 17.2771 129.369 16.4141C129.642 15.6804 130.128 15.0444 130.764 14.5872C131.48 14.1224 132.323 13.8915 133.176 13.9261C134.599 13.9261 135.671 14.3975 136.392 15.3403C137.114 16.283 137.474 17.541 137.472 19.1141C137.481 20.6518 137.13 21.9042 136.42 22.8711Z" fill="white"/>
<path d="M150.552 19.0501L156.06 11.6001H152.602L148.892 16.7741L145.141 11.6001H141.682L147.191 19.0501L141.557 26.6618H145.029L148.892 21.3205L152.727 26.6618H156.2L150.552 19.0501Z" fill="white"/>
<path d="M9.96507 7.17082C12.3388 4.79458 15.5044 3.37562 18.8576 3.18476C22.2109 2.99389 25.5171 4.04449 28.1451 6.13602L30.3262 3.95766C27.5413 1.64532 24.0818 0.298266 20.4665 0.118548C16.8512 -0.06117 13.2751 0.936143 10.2746 2.96088C7.2741 4.98562 5.01096 7.92864 3.82466 11.3485C2.63835 14.7683 2.59284 18.4806 3.69495 21.9285L6.20523 19.4182C5.78204 17.2249 5.90354 14.9614 6.55907 12.826C7.2146 10.6907 8.38414 8.74881 9.96507 7.17082Z" fill="#288FFF"/>
<path d="M29.2909 26.4972C26.9154 28.8714 23.7489 30.2878 20.3956 30.476C17.0424 30.6643 13.7372 29.6113 11.1108 27.518L8.92969 29.6992C11.7137 32.0118 15.1724 33.3595 18.7872 33.5403C22.4019 33.7211 25.9778 32.7251 28.9787 30.7018C31.9796 28.6785 34.2437 25.7369 35.4314 22.3181C36.6192 18.8993 36.6666 15.1875 35.5665 11.7395L33.0563 14.2498C33.4773 16.4435 33.3542 18.707 32.6977 20.8421C32.0413 22.9772 30.8716 24.9189 29.2909 26.4972Z" fill="#288FFF"/>
<path d="M19.627 10.3197L21.797 12.4897L25.9584 8.32819C25.0971 7.68464 24.1424 7.17671 23.1274 6.82202L19.627 10.3197Z" fill="#288FFF"/>
<path d="M17.4603 21.1726L13.2988 25.3341C14.1597 25.9791 15.1145 26.488 16.1299 26.843L19.6275 23.3426L17.4603 21.1726Z" fill="#288FFF"/>
<path d="M39.4991 1.31055L32.5818 1.88512L34.6626 3.96587L21.796 16.8324L17.456 12.4952L0.199219 29.752L2.36922 31.922L17.456 16.8324L21.796 21.1724L36.8326 6.13586L38.9077 8.21103L39.4991 1.31055Z" fill="#288FFF"/>
</g>
<defs>
<clipPath id="clip0_101_195">
<rect width="157.5" height="33.4676" fill="white" transform="translate(0.25 0.100098)"/>
</clipPath>
</defs>
</svg>
